<?xml version="1.0" encoding="UTF-8"?>
<svg width="18px" height="18px" viewBox="0 0 18 18" version="1.1" xmlns="http://www.w3.org/2000/svg" xmlns:xlink="http://www.w3.org/1999/xlink">
    <!-- Generator: Sketch 40.3 (33839) - http://www.bohemiancoding.com/sketch -->
    <title>Shape</title>
    <desc>Created with Sketch.</desc>
    <defs></defs>
    <g id="Page-1" stroke="none" stroke-width="1" fill="none" fill-rule="evenodd">
        <g id="Detailed_View" transform="translate(-676.000000, -620.000000)" fill="#FFFFFF">
            <g id="Group-25" transform="translate(649.000000, 609.000000)">
                <g id="Group-15" transform="translate(27.000000, 11.000000)">
                    <g id="Group-18">
                        <path d="M0.636206897,14.4310345 L1.38103448,14.4310345 C0.868965517,15.3465517 0.993103448,16.5258621 1.76896552,17.3017241 C2.21896552,17.7517241 2.82413793,18 3.47586207,18 C4.12758621,18 4.71724138,17.7517241 5.18275862,17.3017241 C5.63275862,16.8517241 5.88103448,16.2465517 5.88103448,15.5948276 C5.88103448,15.1758621 5.77241379,14.787931 5.57068966,14.4310345 L8.56551724,14.4310345 C8.05344828,15.3465517 8.17758621,16.5258621 8.95344828,17.3017241 C9.40344828,17.7517241 10.0086207,18 10.6603448,18 C11.312069,18 11.9017241,17.7517241 12.3672414,17.3017241 C12.8172414,16.8517241 13.0655172,16.2465517 13.0655172,15.5948276 C13.0655172,15.1758621 12.9568966,14.787931 12.7551724,14.4310345 L13.562069,14.4310345 C13.9189655,14.4310345 14.1982759,14.1517241 14.1982759,13.7948276 C14.1982759,13.437931 13.9189655,13.1586207 13.562069,13.1586207 L1.27241379,13.1586207 L1.27241379,11.9172414 L15.237931,11.9172414 C15.5172414,11.9172414 15.7655172,11.7310345 15.8431034,11.4517241 L17.9534483,3.73965517 C18,3.55344828 17.9689655,3.35172414 17.8448276,3.19655172 C17.7206897,3.04137931 17.5344828,2.94827586 17.3482759,2.94827586 L1.27241379,2.94827586 L1.27241379,0.636206897 C1.27241379,0.279310345 0.993103448,0 0.636206897,0 C0.279310345,0 0,0.279310345 0,0.636206897 L0,3.56896552 L0,11.2810345 L0,13.7793103 C-2.75641579e-16,14.1517241 0.279310345,14.4310345 0.636206897,14.4310345 L0.636206897,14.4310345 Z M9.83793103,14.787931 C10.0551724,14.5706897 10.3344828,14.4465517 10.6448276,14.4465517 C10.9551724,14.4465517 11.2344828,14.5706897 11.4517241,14.787931 C11.6689655,15.0051724 11.7931034,15.2844828 11.7931034,15.5948276 C11.7931034,15.9051724 11.6689655,16.1844828 11.4517241,16.4017241 C11.0172414,16.8362069 10.2724138,16.8362069 9.83793103,16.4017241 C9.38793103,15.9517241 9.38793103,15.237931 9.83793103,14.787931 L9.83793103,14.787931 Z M2.66896552,14.787931 C2.8862069,14.5706897 3.16551724,14.4465517 3.47586207,14.4465517 C3.7862069,14.4465517 4.06551724,14.5706897 4.28275862,14.787931 C4.5,15.0051724 4.62413793,15.2844828 4.62413793,15.5948276 C4.62413793,15.9051724 4.5,16.1844828 4.28275862,16.4017241 C3.84827586,16.8362069 3.10344828,16.8362069 2.66896552,16.4017241 C2.21896552,15.9517241 2.21896552,15.237931 2.66896552,14.787931 L2.66896552,14.787931 Z M1.27241379,4.20517241 L16.5103448,4.20517241 L14.7413793,10.6603448 L1.27241379,10.6603448 L1.27241379,4.20517241 L1.27241379,4.20517241 Z" id="Shape"></path>
                    </g>
                </g>
            </g>
        </g>
    </g>
</svg>