<?xml version="1.0" encoding="UTF-8"?>
<svg width="35px" height="35px" viewBox="0 0 35 35" version="1.1" xmlns="http://www.w3.org/2000/svg" xmlns:xlink="http://www.w3.org/1999/xlink">
    <!-- Generator: Sketch 40.3 (33839) - http://www.bohemiancoding.com/sketch -->
    <title>Group</title>
    <desc>Created with Sketch.</desc>
    <defs></defs>
    <g id="Page-1" stroke="none" stroke-width="1" fill="none" fill-rule="evenodd">
        <g id="Search_List" transform="translate(-1143.000000, -22.000000)">
            <g id="Group-23">
                <g id="Group-5" transform="translate(693.000000, 23.000000)">
                    <g id="Group-4" transform="translate(450.000000, 0.000000)">
                        <g id="Group">
                            <path d="M19.6716242,14.2404094 C17.9085302,12.4764027 16.9327987,10.1357651 16.9180805,7.6442953 L9.10812081,7.6442953 L7.88366443,2.38022819 L1.25012752,0.102114094 L0.0271543624,3.66298658 L4.68880537,5.26395302 L8.00414765,19.5179396 L9.13858389,24.5302013 L28.8768389,24.5302013 L30.8433624,15.8424027 C29.5016174,16.5789933 27.9623758,16.9989732 26.3263826,16.9989732 C23.8123221,16.9981745 21.4488658,16.0185638 19.6716242,14.2404094 L19.6716242,14.2404094 Z" id="Shape" fill="#F9690E"></path>
                            <ellipse id="Oval" fill="#5C546A" cx="12.9036846" cy="30.2348993" rx="3.70805369" ry="3.70805369"></ellipse>
                            <ellipse id="Oval" fill="#5C546A" cx="25.1117383" cy="30.2348993" rx="3.70805369" ry="3.70805369"></ellipse>
                            <path d="M23.8055245,20.2162162 L23.8085646,20.2162162 C29.3896083,20.2162162 33.9142407,15.6918878 33.9159127,10.1108441 C33.9172807,4.52873644 29.3932563,0 23.8109966,0 L23.8081086,0 C18.2270649,0 13.7022805,4.52432839 13.7007605,10.1053721 C13.6989364,15.6874798 18.2231128,20.2162162 23.8055245,20.2162162 L23.8055245,20.2162162 Z" id="Shape" stroke="#FFFFFF" stroke-width="2" fill="#5C546A"></path>
                        </g>
                    </g>
                </g>
            </g>
        </g>
    </g>
</svg>