<?xml version="1.0" encoding="UTF-8"?>
<svg width="19px" height="19px" viewBox="0 0 19 19" version="1.1" xmlns="http://www.w3.org/2000/svg" xmlns:xlink="http://www.w3.org/1999/xlink">
    <!-- Generator: Sketch 40.3 (33839) - http://www.bohemiancoding.com/sketch -->
    <title>Shape</title>
    <desc>Created with Sketch.</desc>
    <defs></defs>
    <g id="Page-1" stroke="none" stroke-width="1" fill="none" fill-rule="evenodd">
        <g id="Search_List" transform="translate(-800.000000, -104.000000)" stroke-width="0.5" stroke="#FFFFFF" fill="#FFFFFF">
            <g id="Group-23">
                <g id="Group-9" transform="translate(153.000000, 94.000000)">
                    <g id="Group-8" transform="translate(628.000000, 0.000000)">
                        <g id="Group-6" transform="translate(20.000000, 11.000000)">
                            <g id="Group-7">
                                <path d="M6.27318505,16.2935804 L6.27318505,10.2459419 L0.121456314,1.10335575 C-0.128360081,0.815372957 -0.0208002442,0.0242877051 0.707830909,0 L16.2935982,0 C16.7168982,0 17.2546974,0.49963279 16.8799728,1.10335575 L10.7282441,10.2459419 L10.7282441,14.0001271 C10.7282441,14.2221862 10.6241539,14.4303665 10.4472007,14.5656837 L7.40776784,16.859137 C7.23428423,17.0534386 6.36339652,17.1818165 6.27318505,16.2935804 L6.27318505,16.2935804 Z M2.04018502,1.41562624 L7.57084243,9.63527958 C7.65064489,9.75324843 7.69228096,9.88856564 7.69228096,10.0308222 L7.69228096,14.8744845 L9.31608753,13.6496903 L9.31608753,10.0308222 C9.31608753,9.88856564 9.35772359,9.75324843 9.43752605,9.63527958 L14.9612441,1.41562624 L2.04018502,1.41562624 L2.04018502,1.41562624 Z" id="Shape"></path>
                            </g>
                        </g>
                    </g>
                </g>
            </g>
        </g>
    </g>
</svg>