<?xml version="1.0" encoding="UTF-8"?>
<svg width="27px" height="11px" viewBox="0 0 27 11" version="1.1" xmlns="http://www.w3.org/2000/svg" xmlns:xlink="http://www.w3.org/1999/xlink">
    <!-- Generator: Sketch 40.3 (33839) - http://www.bohemiancoding.com/sketch -->
    <title>Shape</title>
    <desc>Created with Sketch.</desc>
    <defs></defs>
    <g id="Page-1" stroke="none" stroke-width="1" fill="none" fill-rule="evenodd">
        <g id="Detailed_View" transform="translate(-882.000000, -624.000000)" fill="#FFFFFF">
            <g id="Group-25-Copy" transform="translate(844.000000, 609.000000)">
                <g id="Group-17">
                    <path d="M64.8616803,18.5873469 C64.8118852,17.9765102 64.3688197,17.5017143 63.7190492,16.9764082 C63.2640328,16.6089184 62.3829918,16.1801429 61.3955,16.1801429 C60.5600492,16.1801429 59.3492541,16.4872449 58.3208197,17.948449 C57.3957377,19.1463265 56.2360656,19.6316735 55.2946066,19.8150816 C55.3789262,19.6009184 55.4338115,19.3438776 55.435582,18.9808776 C55.4437705,16.9485714 53.8474508,15.4213673 51.6398689,15.4112653 L43.7591885,15.418 C43.0195656,15.418 42.2916721,15.6393469 41.6779754,16.0400612 L41.6779754,15 L38,15 L38,25.7842653 L41.6777541,25.7842653 L41.6777541,24.6384694 C41.8167377,24.7080612 42.0081721,24.8490408 42.0081721,24.8490408 C42.6413443,25.2032857 43.6226393,25.6383469 44.6236311,25.6383469 L51.8633934,25.6383469 C58.0999508,25.6383469 62.4055656,22.0943265 63.966918,20.3388163 C64.4341066,19.8137347 64.9172295,19.2706939 64.8616803,18.5873469 L64.8616803,18.5873469 Z M40.4459344,17.3820612 L39.1603361,17.3820612 L39.1603361,16.0777755 L40.4459344,16.0777755 L40.4459344,17.3820612 L40.4459344,17.3820612 L40.4459344,17.3820612 Z M63.0128443,19.465102 C61.5661311,21.0917551 57.5842951,24.3342857 51.8633934,24.3342857 L44.6236311,24.3342857 C43.3995574,24.3342857 42.0814262,23.3631429 42.0694754,23.3537143 C41.9566066,23.2693061 41.8222705,23.2262041 41.6868279,23.2262041 C41.6839508,23.2262041 41.6808525,23.227102 41.6775328,23.227102 L41.6775328,17.4806122 C41.8182869,17.4828571 41.9585984,17.4422245 42.0747869,17.3526531 L42.2153197,17.2451224 C42.6526311,16.9081633 43.2005984,16.7222857 43.7558689,16.7222857 L51.6334508,16.7153265 C52.8902787,16.7207143 54.1561803,17.4532245 54.149541,18.9754898 C54.149541,19.8545918 53.5716967,19.8999388 53.5407131,19.9075714 L47.7664754,19.9075714 C47.4114918,19.9075714 47.1237869,20.1996327 47.1237869,20.5594898 C47.1237869,20.9193469 47.4114918,21.2111837 47.7664754,21.2111837 L53.8950328,21.2111837 L54.2365164,21.2102857 C55.1987787,21.2100612 57.6214754,20.9795102 59.3430574,18.739102 C59.3485902,18.7314694 59.3547869,18.7236122 59.359877,18.7157551 C59.9319672,17.8981633 60.6169262,17.4837551 61.3950574,17.4837551 C62.0977213,17.4837551 62.6983607,17.8191429 62.9176803,17.9962653 C63.5616967,18.5166327 63.579623,18.6872449 63.5800656,18.6939796 C63.5822787,18.8248571 63.1684262,19.29 63.0128443,19.465102 L63.0128443,19.465102 Z" id="Shape"></path>
                </g>
            </g>
        </g>
    </g>
</svg>